<svg width="24" height="24" viewBox="0 0 24 24" fill="none" xmlns="http://www.w3.org/2000/svg">
<g clip-path="url(#clip0_69_1862)">
<path d="M0 15H24V24L0 24V15Z" fill="#1EB53A"/>
<path d="M0 0H24V9H0V0Z" fill="#0099B5"/>
<path d="M0 9H24V17H0V9Z" fill="#CE1126"/>
<path d="M0 10H24V16L0 16V10Z" fill="white"/>
<path d="M7.07854 7.79331C8.12604 7.79331 8.9752 6.94415 8.9752 5.89666C8.9752 4.84916 8.12604 4 7.07854 4C6.03105 4 5.18188 4.84916 5.18188 5.89666C5.18188 6.94415 6.03105 7.79331 7.07854 7.79331Z" fill="white"/>
<path d="M7.92131 7.79331C8.96881 7.79331 9.81797 6.94415 9.81797 5.89666C9.81797 4.84916 8.96881 4 7.92131 4C6.87382 4 6.02466 4.84916 6.02466 5.89666C6.02466 6.94415 6.87382 7.79331 7.92131 7.79331Z" fill="#0099B5"/>
<path d="M11.4839 7.14255L11.3625 7.51614L11.5493 7.57684L11.4839 7.14255Z" fill="white"/>
<path d="M11.4839 7.14255L11.6053 7.51614L11.4185 7.57684L11.4839 7.14255Z" fill="white"/>
<path d="M11.8574 7.414H11.4646V7.61041L11.8574 7.414Z" fill="white"/>
<path d="M11.8573 7.414L11.5395 7.64489L11.4241 7.486L11.8573 7.414Z" fill="white"/>
<path d="M11.1104 7.414L11.4281 7.64489L11.5436 7.486L11.1104 7.414Z" fill="white"/>
<path d="M11.1104 7.414H11.5032V7.61041L11.1104 7.414Z" fill="white"/>
<path d="M11.7147 7.85318L11.5933 7.47958L11.4065 7.54027L11.7147 7.85318Z" fill="white"/>
<path d="M11.7148 7.85318L11.397 7.62229L11.5124 7.46338L11.7148 7.85318Z" fill="white"/>
<path d="M11.2529 7.85318L11.5707 7.62229L11.4553 7.46338L11.2529 7.85318Z" fill="white"/>
<path d="M11.2529 7.85318L11.3743 7.47958L11.5611 7.54027L11.2529 7.85318Z" fill="white"/>
<path d="M11.4839 5.57126L11.3625 5.94485L11.5493 6.00555L11.4839 5.57126Z" fill="white"/>
<path d="M11.4839 5.57126L11.6053 5.94485L11.4185 6.00555L11.4839 5.57126Z" fill="white"/>
<path d="M11.8574 5.84271H11.4646V6.03912L11.8574 5.84271Z" fill="white"/>
<path d="M11.8573 5.84271L11.5395 6.0736L11.4241 5.91471L11.8573 5.84271Z" fill="white"/>
<path d="M11.1104 5.84271L11.4281 6.0736L11.5436 5.91471L11.1104 5.84271Z" fill="white"/>
<path d="M11.1104 5.84271H11.5032V6.03912L11.1104 5.84271Z" fill="white"/>
<path d="M11.7147 6.28192L11.5933 5.90833L11.4065 5.96901L11.7147 6.28192Z" fill="white"/>
<path d="M11.7148 6.28189L11.397 6.051L11.5124 5.89209L11.7148 6.28189Z" fill="white"/>
<path d="M11.2529 6.28189L11.5707 6.051L11.4553 5.89209L11.2529 6.28189Z" fill="white"/>
<path d="M11.2529 6.28192L11.3743 5.90833L11.5611 5.96901L11.2529 6.28192Z" fill="white"/>
<path d="M11.4839 4L11.3625 4.37359L11.5493 4.43429L11.4839 4Z" fill="white"/>
<path d="M11.4839 4L11.6053 4.37359L11.4185 4.43429L11.4839 4Z" fill="white"/>
<path d="M11.8574 4.27142H11.4646V4.46783L11.8574 4.27142Z" fill="white"/>
<path d="M11.8573 4.27142L11.5395 4.50231L11.4241 4.34342L11.8573 4.27142Z" fill="white"/>
<path d="M11.1104 4.27142L11.4281 4.50231L11.5436 4.34342L11.1104 4.27142Z" fill="white"/>
<path d="M11.1104 4.27142H11.5032V4.46783L11.1104 4.27142Z" fill="white"/>
<path d="M11.7147 4.71063L11.5933 4.33704L11.4065 4.39772L11.7147 4.71063Z" fill="white"/>
<path d="M11.7148 4.71063L11.397 4.47974L11.5124 4.32083L11.7148 4.71063Z" fill="white"/>
<path d="M11.2529 4.71063L11.5707 4.47974L11.4553 4.32083L11.2529 4.71063Z" fill="white"/>
<path d="M11.2529 4.71063L11.3743 4.33704L11.5611 4.39772L11.2529 4.71063Z" fill="white"/>
<path d="M13.0552 7.14255L12.9338 7.51614L13.1206 7.57684L13.0552 7.14255Z" fill="white"/>
<path d="M13.0552 7.14255L13.1765 7.51614L12.9897 7.57684L13.0552 7.14255Z" fill="white"/>
<path d="M13.4287 7.414H13.0359V7.61041L13.4287 7.414Z" fill="white"/>
<path d="M13.4288 7.414L13.1111 7.64489L12.9956 7.486L13.4288 7.414Z" fill="white"/>
<path d="M12.6816 7.414L12.9994 7.64489L13.1149 7.486L12.6816 7.414Z" fill="white"/>
<path d="M12.6816 7.414H13.0745V7.61041L12.6816 7.414Z" fill="white"/>
<path d="M13.286 7.85318L13.1646 7.47958L12.9778 7.54027L13.286 7.85318Z" fill="white"/>
<path d="M13.2861 7.85318L12.9683 7.62229L13.0837 7.46338L13.2861 7.85318Z" fill="white"/>
<path d="M12.8242 7.85318L13.142 7.62229L13.0266 7.46338L12.8242 7.85318Z" fill="white"/>
<path d="M12.8242 7.85318L12.9456 7.47958L13.1324 7.54027L12.8242 7.85318Z" fill="white"/>
<path d="M13.0552 5.57126L12.9338 5.94485L13.1206 6.00555L13.0552 5.57126Z" fill="white"/>
<path d="M13.0552 5.57126L13.1765 5.94485L12.9897 6.00555L13.0552 5.57126Z" fill="white"/>
<path d="M13.4287 5.84271H13.0359V6.03912L13.4287 5.84271Z" fill="white"/>
<path d="M13.4288 5.84271L13.1111 6.0736L12.9956 5.91471L13.4288 5.84271Z" fill="white"/>
<path d="M12.6816 5.84271L12.9994 6.0736L13.1149 5.91471L12.6816 5.84271Z" fill="white"/>
<path d="M12.6816 5.84271H13.0745V6.03912L12.6816 5.84271Z" fill="white"/>
<path d="M13.286 6.28192L13.1646 5.90833L12.9778 5.96901L13.286 6.28192Z" fill="white"/>
<path d="M13.2861 6.28189L12.9683 6.051L13.0837 5.89209L13.2861 6.28189Z" fill="white"/>
<path d="M12.8242 6.28189L13.142 6.051L13.0266 5.89209L12.8242 6.28189Z" fill="white"/>
<path d="M12.8242 6.28192L12.9456 5.90833L13.1324 5.96901L12.8242 6.28192Z" fill="white"/>
<path d="M13.0552 4L12.9338 4.37359L13.1206 4.43429L13.0552 4Z" fill="white"/>
<path d="M13.0552 4L13.1765 4.37359L12.9897 4.43429L13.0552 4Z" fill="white"/>
<path d="M13.4287 4.27142H13.0359V4.46783L13.4287 4.27142Z" fill="white"/>
<path d="M13.4288 4.27142L13.1111 4.50231L12.9956 4.34342L13.4288 4.27142Z" fill="white"/>
<path d="M12.6814 4.27142L12.9992 4.50231L13.1146 4.34342L12.6814 4.27142Z" fill="white"/>
<path d="M12.6814 4.27142H13.0742V4.46783L12.6814 4.27142Z" fill="white"/>
<path d="M13.286 4.71063L13.1646 4.33704L12.9778 4.39772L13.286 4.71063Z" fill="white"/>
<path d="M13.2861 4.71063L12.9683 4.47974L13.0837 4.32083L13.2861 4.71063Z" fill="white"/>
<path d="M12.8242 4.71063L13.142 4.47974L13.0266 4.32083L12.8242 4.71063Z" fill="white"/>
<path d="M12.8242 4.71063L12.9456 4.33704L13.1324 4.39772L12.8242 4.71063Z" fill="white"/>
<path d="M14.6263 7.14255L14.5049 7.51614L14.6917 7.57684L14.6263 7.14255Z" fill="white"/>
<path d="M14.6264 7.14255L14.7478 7.51614L14.561 7.57684L14.6264 7.14255Z" fill="white"/>
<path d="M15 7.414H14.6072V7.61041L15 7.414Z" fill="white"/>
<path d="M14.9999 7.414L14.6821 7.64489L14.5667 7.486L14.9999 7.414Z" fill="white"/>
<path d="M14.2527 7.414L14.5705 7.64489L14.6859 7.486L14.2527 7.414Z" fill="white"/>
<path d="M14.2527 7.414H14.6455V7.61041L14.2527 7.414Z" fill="white"/>
<path d="M14.8573 7.85318L14.7359 7.47958L14.5491 7.54027L14.8573 7.85318Z" fill="white"/>
<path d="M14.8573 7.85318L14.5396 7.62229L14.655 7.46338L14.8573 7.85318Z" fill="white"/>
<path d="M14.3955 7.85318L14.7133 7.62229L14.5979 7.46338L14.3955 7.85318Z" fill="white"/>
<path d="M14.3955 7.85318L14.5169 7.47958L14.7037 7.54027L14.3955 7.85318Z" fill="white"/>
<path d="M14.6263 5.57126L14.5049 5.94485L14.6917 6.00555L14.6263 5.57126Z" fill="white"/>
<path d="M14.6264 5.57126L14.7478 5.94485L14.561 6.00555L14.6264 5.57126Z" fill="white"/>
<path d="M15 5.84271H14.6072V6.03912L15 5.84271Z" fill="white"/>
<path d="M14.9999 5.84271L14.6821 6.0736L14.5667 5.91471L14.9999 5.84271Z" fill="white"/>
<path d="M14.2527 5.84271L14.5705 6.0736L14.6859 5.91471L14.2527 5.84271Z" fill="white"/>
<path d="M14.2527 5.84271H14.6455V6.03912L14.2527 5.84271Z" fill="white"/>
<path d="M14.8573 6.28192L14.7359 5.90833L14.5491 5.96901L14.8573 6.28192Z" fill="white"/>
<path d="M14.8573 6.28189L14.5396 6.051L14.655 5.89209L14.8573 6.28189Z" fill="white"/>
<path d="M14.3955 6.28189L14.7133 6.051L14.5979 5.89209L14.3955 6.28189Z" fill="white"/>
<path d="M14.3955 6.28192L14.5169 5.90833L14.7037 5.96901L14.3955 6.28192Z" fill="white"/>
<path d="M14.6263 4L14.5049 4.37359L14.6917 4.43429L14.6263 4Z" fill="white"/>
<path d="M14.6264 4L14.7478 4.37359L14.561 4.43429L14.6264 4Z" fill="white"/>
<path d="M15 4.27142H14.6072V4.46783L15 4.27142Z" fill="white"/>
<path d="M14.9999 4.27142L14.6821 4.50231L14.5667 4.34342L14.9999 4.27142Z" fill="white"/>
<path d="M14.2527 4.27142L14.5705 4.50231L14.6859 4.34342L14.2527 4.27142Z" fill="white"/>
<path d="M14.2527 4.27142H14.6455V4.46783L14.2527 4.27142Z" fill="white"/>
<path d="M14.8573 4.71063L14.7359 4.33704L14.5491 4.39772L14.8573 4.71063Z" fill="white"/>
<path d="M14.8573 4.71063L14.5396 4.47974L14.655 4.32083L14.8573 4.71063Z" fill="white"/>
<path d="M14.3955 4.71063L14.7133 4.47974L14.5979 4.32083L14.3955 4.71063Z" fill="white"/>
<path d="M14.3955 4.71063L14.5169 4.33704L14.7037 4.39772L14.3955 4.71063Z" fill="white"/>
<path d="M8.34111 7.14255L8.21973 7.51614L8.40652 7.57684L8.34111 7.14255Z" fill="white"/>
<path d="M8.34129 7.14255L8.46268 7.51614L8.27588 7.57684L8.34129 7.14255Z" fill="white"/>
<path d="M8.71484 7.414H8.32202V7.61041L8.71484 7.414Z" fill="white"/>
<path d="M8.71498 7.414L8.39718 7.64489L8.28174 7.486L8.71498 7.414Z" fill="white"/>
<path d="M7.96777 7.414L8.28557 7.64489L8.40101 7.486L7.96777 7.414Z" fill="white"/>
<path d="M7.96777 7.414H8.36059V7.61041L7.96777 7.414Z" fill="white"/>
<path d="M8.5721 7.85318L8.45071 7.47958L8.26392 7.54027L8.5721 7.85318Z" fill="white"/>
<path d="M8.57194 7.85318L8.25415 7.62229L8.3696 7.46338L8.57194 7.85318Z" fill="white"/>
<path d="M8.11035 7.85318L8.42815 7.62229L8.3127 7.46338L8.11035 7.85318Z" fill="white"/>
<path d="M8.11035 7.85318L8.23174 7.47958L8.41853 7.54027L8.11035 7.85318Z" fill="white"/>
<path d="M9.91264 7.14255L9.79126 7.51614L9.97806 7.57684L9.91264 7.14255Z" fill="white"/>
<path d="M9.91258 7.14255L10.034 7.51614L9.84717 7.57684L9.91258 7.14255Z" fill="white"/>
<path d="M10.2861 7.414H9.89331V7.61041L10.2861 7.414Z" fill="white"/>
<path d="M10.286 7.414L9.96823 7.64489L9.85278 7.486L10.286 7.414Z" fill="white"/>
<path d="M9.53882 7.414L9.85661 7.64489L9.97206 7.486L9.53882 7.414Z" fill="white"/>
<path d="M9.53882 7.414H9.93164V7.61041L9.53882 7.414Z" fill="white"/>
<path d="M10.1434 7.85318L10.022 7.47958L9.83521 7.54027L10.1434 7.85318Z" fill="white"/>
<path d="M10.1435 7.85318L9.82568 7.62229L9.94113 7.46338L10.1435 7.85318Z" fill="white"/>
<path d="M9.6814 7.85318L9.99919 7.62229L9.88374 7.46338L9.6814 7.85318Z" fill="white"/>
<path d="M9.68164 7.85318L9.80303 7.47958L9.98982 7.54027L9.68164 7.85318Z" fill="white"/>
<path d="M9.91264 5.57126L9.79126 5.94485L9.97806 6.00555L9.91264 5.57126Z" fill="white"/>
<path d="M9.91258 5.57126L10.034 5.94485L9.84717 6.00555L9.91258 5.57126Z" fill="white"/>
<path d="M10.2861 5.84271H9.89331V6.03912L10.2861 5.84271Z" fill="white"/>
<path d="M10.286 5.84271L9.96823 6.0736L9.85278 5.91471L10.286 5.84271Z" fill="white"/>
<path d="M9.53882 5.84271L9.85661 6.0736L9.97206 5.91471L9.53882 5.84271Z" fill="white"/>
<path d="M9.53882 5.84271H9.93164V6.03912L9.53882 5.84271Z" fill="white"/>
<path d="M10.1434 6.28192L10.022 5.90833L9.83521 5.96901L10.1434 6.28192Z" fill="white"/>
<path d="M10.1435 6.28189L9.82568 6.051L9.94113 5.89209L10.1435 6.28189Z" fill="white"/>
<path d="M9.6814 6.28189L9.99919 6.051L9.88374 5.89209L9.6814 6.28189Z" fill="white"/>
<path d="M9.68164 6.28192L9.80303 5.90833L9.98982 5.96901L9.68164 6.28192Z" fill="white"/>
</g>
<rect x="0.5" y="0.5" width="23" height="23" rx="11.5" stroke="#F1F0F4"/>
<defs>
<clipPath id="clip0_69_1862">
<rect width="24" height="24" rx="12" fill="white"/>
</clipPath>
</defs>
</svg>
