<svg width="195" height="31" viewBox="0 0 195 31" fill="none" xmlns="http://www.w3.org/2000/svg">
<g clip-path="url(#clip0_577_3581)">
<path d="M104.963 17.7087C104.892 17.7087 104.804 17.7885 104.698 17.9525C104.538 18.1963 104.459 18.4977 104.459 18.8568C104.459 19.2159 104.538 19.5084 104.698 19.7611C104.804 19.9206 104.892 20.0005 104.963 20.0005H124.295V24.9252H102.568C101.671 24.9252 100.934 24.4776 100.35 23.5821C99.8202 22.7709 99.5551 21.7957 99.5551 20.6609V9.83607C99.5551 8.7013 99.8202 7.72612 100.35 6.9149C100.925 6.01507 101.667 5.56734 102.568 5.56734H124.295V10.4966H104.963C104.892 10.4966 104.804 10.5764 104.698 10.736C104.538 10.9842 104.459 11.2856 104.459 11.6403C104.459 11.9949 104.538 12.3007 104.698 12.5445C104.804 12.7041 104.892 12.7883 104.963 12.7883H124.295V17.7131H104.963V17.7087Z" fill="white"/>
<path d="M158.056 24.9208C157.154 24.9208 156.417 24.4731 155.838 23.5777C155.312 22.7665 155.047 21.7913 155.047 20.6565V9.83607C155.047 8.69688 155.312 7.72165 155.838 6.9149C156.417 6.01507 157.154 5.56734 158.056 5.56734H176.743C177.644 5.56734 178.382 6.01507 178.961 6.9149C179.491 7.72612 179.756 8.7013 179.756 9.83607V20.652C179.756 21.7913 179.491 22.7665 178.961 23.5733C178.382 24.4687 177.644 24.9164 176.743 24.9164H158.056V24.9208ZM174.348 19.996C174.419 19.996 174.507 19.9162 174.613 19.7566C174.772 19.5084 174.852 19.207 174.852 18.8524V11.6358C174.852 11.2856 174.772 10.9842 174.613 10.7315C174.507 10.5719 174.419 10.4921 174.348 10.4921H160.41C160.34 10.4921 160.251 10.5719 160.145 10.7315C159.986 10.9797 159.907 11.2812 159.907 11.6358V18.8524C159.907 19.2025 159.986 19.5039 160.145 19.7566C160.251 19.9162 160.34 19.996 160.41 19.996H174.348Z" fill="white"/>
<path d="M132.221 24.9208V19.4685H143.437L147.011 24.9208H152.264L148.686 19.4685H149.008C149.905 19.4685 150.647 19.0208 151.226 18.1254C151.756 17.3142 152.021 16.339 152.021 15.2042V9.83607C152.021 8.7013 151.756 7.72612 151.226 6.9149C150.652 6.01507 149.909 5.56734 149.008 5.56734H127.317V10.4966H146.402C146.503 10.4966 146.627 10.5764 146.773 10.736C146.998 10.9842 147.109 11.259 147.109 11.5516C147.109 12.8238 147.109 13.4754 147.109 13.5108C147.091 13.8211 146.98 14.0871 146.777 14.3043C146.627 14.4639 146.503 14.5481 146.406 14.5481H127.321V24.9252H132.221V24.9208Z" fill="white"/>
<path d="M66.3328 5.56734H61.8048L49.9386 24.9208H55.801L57.4621 22.2568H70.9233L72.5622 24.9208H78.4246L66.3328 5.56734ZM60.4928 17.3319L64.186 11.3299L67.884 17.3319H60.4881H60.4928Z" fill="white"/>
<path d="M92.4513 5.56734L84.0711 19.1582L75.7037 5.56734H69.8325L81.9284 24.9208H86.2178L98.296 5.56734H92.4513Z" fill="white"/>
<path d="M15.184 5.72271L0 30.4886H22.734V25.7721C22.734 25.3023 22.3541 24.9211 21.8858 24.9211H16.3237V22.3234C16.3237 21.0335 17.3664 19.9918 18.6475 19.9918H27.6422C28.3225 19.9918 28.9277 19.5928 29.449 18.7994L30.0985 17.7666H30.1161L37.0432 6.66688C37.4673 5.98426 38.2139 5.57199 39.0135 5.57199H43.4799L34.5339 20.0805H34.5162L33.721 21.3527C32.2985 23.733 30.8362 24.9211 29.343 24.9211H25.9325C25.4642 24.9211 25.0842 25.3023 25.0842 25.7721V30.4886H29.29C33.4162 30.4886 37.2508 28.3564 39.4421 24.8501L54.9485 0H25.3846C21.2231 0 17.362 2.16762 15.184 5.72271ZM26.573 11.2415C26.573 12.7176 25.3802 13.91 23.9135 13.91C22.4468 13.91 21.254 12.7132 21.254 11.2415V8.23607C21.254 6.75996 22.4468 5.56756 23.9135 5.56756C25.3802 5.56756 26.573 6.76444 26.573 8.23607V11.2415Z" fill="#FF354D"/>
<path d="M185.29 5.71661V1.07799H183.567V0H188.259V1.07799H186.536V5.71661H185.29Z" fill="white"/>
<path d="M188.93 5.71661V0H189.961L192.253 4.0343H191.707L193.961 0H194.985L195 5.71661H193.831L193.823 1.90282H194.038L192.238 5.11229H191.677L189.838 1.90282H190.1V5.71661H188.93Z" fill="white"/>
</g>
<defs>
<clipPath id="clip0_577_3581">
<rect width="195" height="30.6344" fill="white"/>
</clipPath>
</defs>
</svg>
