<svg width="76" height="76" viewBox="0 0 76 76" fill="none" xmlns="http://www.w3.org/2000/svg">
<path d="M14.0978 65.7913C16.6932 65.7913 18.7972 63.6873 18.7972 61.0919C18.7972 58.4965 16.6932 56.3925 14.0978 56.3925C11.5024 56.3925 9.39844 58.4965 9.39844 61.0919C9.39844 63.6873 11.5024 65.7913 14.0978 65.7913Z" fill="white"/>
<path d="M65.7913 42.2944H58.7422V37.595C58.7408 36.3491 58.2452 35.1546 57.3642 34.2736C56.4832 33.3926 55.2888 32.8971 54.0429 32.8956H44.6441C43.3982 32.8971 42.2037 33.3926 41.3227 34.2736C40.4417 35.1546 39.9462 36.3491 39.9447 37.595V42.2944H32.8957C31.6498 42.2958 30.4553 42.7914 29.5743 43.6724C28.6933 44.5534 28.1977 45.7478 28.1963 46.9938V65.7913C28.1977 67.0372 28.6933 68.2316 29.5743 69.1126C30.4553 69.9936 31.6498 70.4892 32.8957 70.4906H65.7913C67.0372 70.4892 68.2317 69.9936 69.1127 69.1126C69.9937 68.2316 70.4892 67.0372 70.4907 65.7913V46.9938C70.4892 45.7478 69.9937 44.5534 69.1127 43.6724C68.2317 42.7914 67.0372 42.2958 65.7913 42.2944ZM44.6441 37.595H54.0429V42.2944H44.6441V37.595ZM65.7913 65.7913H32.8957V46.9938H65.7913V65.7913Z" fill="white"/>
<path d="M23.4967 14.0981H32.8955V28.1962H37.5948V14.0981H46.9936V28.1962H51.693V14.0981H61.0917V28.1962H65.7911V14.1096C65.7912 13.491 65.6693 12.8784 65.4326 12.3068C65.1959 11.7352 64.8489 11.2159 64.4114 10.7784C63.974 10.3409 63.4546 9.99393 62.8831 9.75721C62.3115 9.52049 61.6989 9.39868 61.0802 9.39874H9.41011C8.79145 9.39868 8.17883 9.52049 7.60725 9.75721C7.03568 9.99393 6.51633 10.3409 6.07887 10.7784C5.64141 11.2159 5.29441 11.7352 5.05769 12.3068C4.82097 12.8784 4.69916 13.491 4.69922 14.1096V46.9818C4.6991 47.6005 4.82086 48.2131 5.05755 48.7848C5.29425 49.3564 5.64124 49.8758 6.0787 50.3133C6.51617 50.7508 7.03554 51.0979 7.60715 51.3346C8.17876 51.5714 8.79141 51.6932 9.41011 51.6931H23.4967V14.0981ZM18.7973 46.9937H9.39859V14.0981H18.7973V46.9937Z" fill="white"/>
</svg>
