<svg width="76" height="76" viewBox="0 0 76 76" fill="none" xmlns="http://www.w3.org/2000/svg">
<path d="M64.1519 4.69939C63.316 4.69943 62.4886 4.86703 61.7187 5.19228C60.9487 5.51752 60.2517 5.99381 59.6689 6.593L58.7452 7.54533L57.8124 6.593C57.2297 5.99376 56.5327 5.51743 55.7627 5.19218C54.9927 4.86692 54.1653 4.69934 53.3295 4.69934C52.4936 4.69934 51.6662 4.86692 50.8962 5.19218C50.1262 5.51743 49.4292 5.99376 48.8465 6.593C47.6572 7.82004 46.9922 9.46175 46.9922 11.1705C46.9922 12.8793 47.6572 14.521 48.8465 15.7481L58.7452 25.8466L68.6346 15.7481C69.8239 14.521 70.4889 12.8793 70.4889 11.1705C70.4889 9.46175 69.8239 7.82004 68.6346 6.593C68.0519 5.9938 67.355 5.51749 66.585 5.19225C65.815 4.867 64.9877 4.69941 64.1519 4.69939Z" fill="white"/>
<path d="M55.9735 42.2944H35.44L27.8771 14.0166C27.2321 11.6088 25.657 9.55577 23.4984 8.30925C21.3397 7.06273 18.7743 6.7248 16.3664 7.36979C13.9586 8.01477 11.9056 9.58985 10.6591 11.7485C9.41259 13.9072 9.07465 16.4726 9.71964 18.8804L20.0787 57.6068C20.3461 58.6065 20.936 59.49 21.7569 60.1202C22.5778 60.7503 23.5837 61.0919 24.6185 61.0919H44.6438V65.7912H9.39844V70.4906H44.6438C45.8901 70.4906 47.0854 69.9955 47.9667 69.1142C48.848 68.2329 49.3431 67.0376 49.3431 65.7912V61.0919H56.3922C57.7052 61.0902 59.0034 60.8138 60.2032 60.2803C61.403 59.7469 62.4778 58.9683 63.3586 57.9945C64.2395 57.0207 64.9067 55.8734 65.3175 54.6263C65.7283 53.3791 65.8736 52.0599 65.7439 50.7532C65.4426 48.3877 64.279 46.2165 62.4761 44.6556C60.6732 43.0947 58.3578 42.254 55.9735 42.2944ZM56.3922 56.3925H24.6188L14.259 17.6652C13.9364 16.4613 14.1054 15.1785 14.7286 14.0991C15.3518 13.0198 16.3783 12.2322 17.5822 11.9096C18.7861 11.5871 20.0688 11.756 21.1482 12.3792C22.2276 13.0024 23.0152 14.0289 23.3377 15.2328L31.83 46.9937H56.3922C57.6385 46.9937 58.8338 47.4889 59.7151 48.3702C60.5965 49.2515 61.0916 50.4468 61.0916 51.6931C61.0916 52.9395 60.5965 54.1348 59.7151 55.0161C58.8338 55.8974 57.6385 56.3925 56.3922 56.3925Z" fill="white"/>
</svg>
