<svg width="76" height="76" viewBox="0 0 31 31" fill="none" xmlns="http://www.w3.org/2000/svg">
<path d="M30.1234 14.1328L19.875 8.9375V4.5625C19.875 3.40218 19.4141 2.28938 18.5936 1.46891C17.7731 0.648436 16.6603 0.1875 15.5 0.1875C14.3397 0.1875 13.2269 0.648436 12.4064 1.46891C11.5859 2.28938 11.125 3.40218 11.125 4.5625V8.9375L0.876563 14.1328C0.673054 14.2139 0.49857 14.3542 0.375714 14.5355C0.252857 14.7169 0.187288 14.9309 0.187501 15.15V20.6187C0.187501 20.9088 0.302735 21.187 0.507852 21.3921C0.71297 21.5973 0.99117 21.7125 1.28125 21.7125C1.3891 21.71 1.49598 21.6916 1.59844 21.6578L11.125 17.6875V23.1562L7.35156 25.0375C7.16952 25.1292 7.01674 25.27 6.91045 25.4439C6.80415 25.6179 6.74858 25.818 6.75 26.0219V29.7188C6.75 30.0088 6.86523 30.287 7.07035 30.4921C7.27547 30.6973 7.55367 30.8125 7.84375 30.8125C7.94521 30.8285 8.04854 30.8285 8.15 30.8125L15.5 28.625L22.85 30.8125C22.9515 30.8285 23.0548 30.8285 23.1562 30.8125C23.4463 30.8125 23.7245 30.6973 23.9296 30.4921C24.1348 30.287 24.25 30.0088 24.25 29.7188V26.0219C24.2514 25.818 24.1958 25.6179 24.0896 25.4439C23.9833 25.27 23.8305 25.1292 23.6484 25.0375L19.875 23.1562V17.6875L29.4016 21.6359C29.504 21.6697 29.6109 21.6881 29.7188 21.6906C30.0088 21.6906 30.287 21.5754 30.4921 21.3703C30.6973 21.1652 30.8125 20.887 30.8125 20.5969V15.1281C30.8084 14.9128 30.7408 14.7035 30.6182 14.5264C30.4956 14.3494 30.3235 14.2125 30.1234 14.1328ZM28.625 18.9453L17.6875 14.4062V24.5125L22.0625 26.7V28.2641L15.5 26.35L8.9375 28.2641V26.7L13.3125 24.5125V14.4062L2.375 18.9453V15.8281L13.3125 10.2828V4.5625C13.3125 3.98234 13.543 3.42594 13.9532 3.0157C14.3634 2.60547 14.9198 2.375 15.5 2.375C16.0802 2.375 16.6366 2.60547 17.0468 3.0157C17.457 3.42594 17.6875 3.98234 17.6875 4.5625V10.2828L28.625 15.8281V18.9453Z" fill="white"/>
</svg>
