<svg width="77" height="76" viewBox="0 0 77 76" fill="none" xmlns="http://www.w3.org/2000/svg">
<path d="M71.4191 26.0053V7.20827C71.4191 6.58511 71.1716 5.98747 70.7309 5.54683C70.2903 5.10619 69.6927 4.85864 69.0695 4.85864H45.5733C44.9501 4.85864 44.3525 5.10619 43.9118 5.54683C43.4712 5.98747 43.2236 6.58511 43.2236 7.20827V26.0053C43.2291 29.3337 44.4113 32.553 46.5612 35.0939C48.7111 37.6349 51.6902 39.3338 54.9718 39.8904V65.9477H45.5733V70.6469H69.0695V65.9477H59.671V39.8904C62.9526 39.3338 65.9317 37.6349 68.0816 35.0939C70.2315 32.553 71.4136 29.3337 71.4191 26.0053ZM47.9229 26.0053V9.55672H66.7199V26.0053C66.7199 28.4979 65.7297 30.8884 63.9671 32.651C62.2046 34.4136 59.814 35.4038 57.3214 35.4038C54.8287 35.4038 52.4382 34.4136 50.6756 32.651C48.9131 30.8884 47.9229 28.4979 47.9229 26.0053Z" fill="white"/>
<path d="M29.1261 4.85742V26.051C29.1234 28.5179 28.1422 30.8829 26.3979 32.6273C24.6535 34.3716 22.2885 35.3528 19.8216 35.3555C17.3299 35.3773 14.9312 34.41 13.1517 32.6658C11.3722 30.9215 10.3572 28.5427 10.3291 26.051V4.85742H5.62988V26.051C5.6528 29.3635 6.84357 32.5616 8.99255 35.0825C11.1415 37.6033 14.1109 39.2852 17.378 39.8321V70.6469H22.0773V39.8558C25.3532 39.3189 28.3322 37.6366 30.4837 35.1085C32.6352 32.5804 33.8194 29.3707 33.8254 26.051V4.85742H29.1261Z" fill="white"/>
<path d="M22.0772 4.85742H17.3779V28.3067H22.0772V4.85742Z" fill="white"/>
</svg>
