<svg width="30" height="30" viewBox="0 0 30 30" fill="none" xmlns="http://www.w3.org/2000/svg">
<g clip-path="url(#clip0_577_7842)">
<path d="M25.5965 1.87502C25.263 1.87504 24.9329 1.94191 24.6257 2.07168C24.3185 2.20144 24.0404 2.39148 23.8079 2.63055L23.4393 3.01052L23.0672 2.63055C22.8346 2.39146 22.5566 2.20141 22.2493 2.07164C21.9421 1.94186 21.612 1.875 21.2785 1.875C20.945 1.875 20.6149 1.94186 20.3077 2.07164C20.0004 2.20141 19.7224 2.39146 19.4898 2.63055C19.0153 3.12013 18.75 3.77515 18.75 4.45694C18.75 5.13873 19.0153 5.79376 19.4898 6.28333L23.4393 10.3125L27.3851 6.28333C27.8596 5.79376 28.1249 5.13873 28.1249 4.45694C28.1249 3.77515 27.8596 3.12013 27.3851 2.63055C27.1526 2.39147 26.8745 2.20143 26.5673 2.07166C26.2601 1.94189 25.93 1.87503 25.5965 1.87502Z" fill="#FF354D"/>
<path d="M22.3329 16.8747H14.1403L11.1228 5.59222C10.8654 4.63152 10.237 3.8124 9.37572 3.31505C8.51443 2.81771 7.49085 2.68287 6.53016 2.94022C5.56946 3.19756 4.75034 3.826 4.25299 4.68728C3.75565 5.54857 3.62081 6.57215 3.87816 7.53284L8.01131 22.9842C8.118 23.3831 8.35337 23.7356 8.68089 23.987C9.00841 24.2385 9.40976 24.3748 9.82266 24.3747H17.8125V26.2497H3.75V28.1247H17.8125C18.3098 28.1247 18.7867 27.9272 19.1383 27.5756C19.49 27.2239 19.6875 26.747 19.6875 26.2497V24.3747H22.5C23.0239 24.3741 23.5418 24.2638 24.0205 24.051C24.4992 23.8381 24.9281 23.5274 25.2795 23.1389C25.631 22.7504 25.8972 22.2926 26.0611 21.795C26.225 21.2975 26.283 20.7711 26.2312 20.2497C26.111 19.3059 25.6468 18.4396 24.9274 17.8169C24.2081 17.1941 23.2843 16.8586 22.3329 16.8747ZM22.5 22.4997H9.82275L5.68931 7.04797C5.56062 6.56762 5.62801 6.05582 5.87666 5.62516C6.12532 5.1945 6.53487 4.88026 7.01522 4.75156C7.49557 4.62287 8.00737 4.69026 8.43803 4.93891C8.86869 5.18757 9.18293 5.59712 9.31162 6.07747L12.6999 18.7497H22.5C22.9973 18.7497 23.4742 18.9473 23.8258 19.2989C24.1775 19.6506 24.375 20.1275 24.375 20.6247C24.375 21.122 24.1775 21.5989 23.8258 21.9506C23.4742 22.3022 22.9973 22.4997 22.5 22.4997Z" fill="#FF354D"/>
</g>
<defs>
<clipPath id="clip0_577_7842">
<rect width="30" height="30" fill="white"/>
</clipPath>
</defs>
</svg>
