<svg width="30" height="30" viewBox="0 0 30 30" fill="none" xmlns="http://www.w3.org/2000/svg">
<g clip-path="url(#clip0_577_7846)">
<path d="M28.125 10.3125V2.8125C28.125 2.56386 28.0262 2.3254 27.8504 2.14959C27.6746 1.97377 27.4361 1.875 27.1875 1.875H17.8125C17.5639 1.875 17.3254 1.97377 17.1496 2.14959C16.9738 2.3254 16.875 2.56386 16.875 2.8125V10.3125C16.8772 11.6405 17.3489 12.925 18.2067 13.9389C19.0645 14.9527 20.2532 15.6306 21.5625 15.8527V26.2495H17.8125V28.1245H27.1875V26.2495H23.4375V15.8527C24.7468 15.6306 25.9355 14.9527 26.7933 13.9389C27.6511 12.925 28.1228 11.6405 28.125 10.3125ZM18.75 10.3125V3.74953H26.25V10.3125C26.25 11.3071 25.8549 12.2609 25.1516 12.9642C24.4484 13.6674 23.4946 14.0625 22.5 14.0625C21.5054 14.0625 20.5516 13.6674 19.8484 12.9642C19.1451 12.2609 18.75 11.3071 18.75 10.3125Z" fill="#FF354D"/>
<path d="M11.25 1.875V10.3313C11.2489 11.3155 10.8574 12.2592 10.1614 12.9552C9.46544 13.6512 8.52178 14.0427 7.5375 14.0437C6.54331 14.0525 5.58625 13.6665 4.87622 12.9705C4.1662 12.2746 3.76118 11.3254 3.75 10.3313V1.875H1.875V10.3313C1.88414 11.6529 2.35926 12.929 3.2167 13.9348C4.07415 14.9406 5.25894 15.6117 6.5625 15.8299V28.125H8.4375V15.8393C9.74461 15.6251 10.9332 14.9539 11.7917 13.9452C12.6501 12.9365 13.1226 11.6558 13.125 10.3313V1.875H11.25Z" fill="#FF354D"/>
<path d="M8.4375 1.875H6.5625V11.2312H8.4375V1.875Z" fill="#FF354D"/>
</g>
<defs>
<clipPath id="clip0_577_7846">
<rect width="30" height="30" fill="white"/>
</clipPath>
</defs>
</svg>
