<svg width="30" height="30" viewBox="0 0 30 30" fill="none" xmlns="http://www.w3.org/2000/svg">
<g clip-path="url(#clip0_577_7851)">
<path d="M26.25 9.375H20.625V5.625C20.625 5.12772 20.4275 4.65081 20.0758 4.29917C19.7242 3.94754 19.2473 3.75 18.75 3.75H11.25C10.7527 3.75 10.2758 3.94754 9.92418 4.29917C9.57254 4.65081 9.375 5.12772 9.375 5.625V9.375H3.75C3.25272 9.375 2.77581 9.57254 2.42417 9.92418C2.07254 10.2758 1.875 10.7527 1.875 11.25V24.375C1.875 24.8723 2.07254 25.3492 2.42417 25.7008C2.77581 26.0525 3.25272 26.25 3.75 26.25H26.25C26.7473 26.25 27.2242 26.0525 27.5758 25.7008C27.9275 25.3492 28.125 24.8723 28.125 24.375V11.25C28.125 10.7527 27.9275 10.2758 27.5758 9.92418C27.2242 9.57254 26.7473 9.375 26.25 9.375ZM11.25 5.625H18.75V9.375H11.25V5.625ZM3.75 24.375V11.25H26.25V24.375H3.75Z" fill="#FF354D"/>
</g>
<defs>
<clipPath id="clip0_577_7851">
<rect width="30" height="30" fill="white"/>
</clipPath>
</defs>
</svg>
