<svg width="35" height="35" viewBox="0 0 35 35" fill="none" xmlns="http://www.w3.org/2000/svg">
<g clip-path="url(#clip0_821_5888)">
<path d="M6.5625 30.625C7.77062 30.625 8.75 29.6456 8.75 28.4375C8.75 27.2294 7.77062 26.25 6.5625 26.25C5.35438 26.25 4.375 27.2294 4.375 28.4375C4.375 29.6456 5.35438 30.625 6.5625 30.625Z" fill="white"/>
<path d="M30.625 19.6875H27.3438V17.5C27.3431 16.92 27.1124 16.364 26.7023 15.9539C26.2922 15.5438 25.7362 15.3132 25.1562 15.3125H20.7812C20.2013 15.3132 19.6453 15.5438 19.2352 15.9539C18.8251 16.364 18.5944 16.92 18.5938 17.5V19.6875H15.3125C14.7325 19.6882 14.1765 19.9188 13.7664 20.3289C13.3563 20.739 13.1257 21.295 13.125 21.875V30.625C13.1257 31.205 13.3563 31.761 13.7664 32.1711C14.1765 32.5812 14.7325 32.8118 15.3125 32.8125H30.625C31.205 32.8118 31.761 32.5812 32.1711 32.1711C32.5812 31.761 32.8118 31.205 32.8125 30.625V21.875C32.8118 21.295 32.5812 20.739 32.1711 20.3289C31.761 19.9188 31.205 19.6882 30.625 19.6875ZM20.7812 17.5H25.1562V19.6875H20.7812V17.5ZM30.625 30.625H15.3125V21.875H30.625V30.625Z" fill="white"/>
<path d="M10.9375 6.5625H15.3125V13.125H17.5V6.5625H21.875V13.125H24.0625V6.5625H28.4375V13.125H30.625V6.56786C30.625 6.27988 30.5683 5.99472 30.4581 5.72865C30.3479 5.46259 30.1864 5.22084 29.9828 5.01721C29.7792 4.81358 29.5374 4.65205 29.2713 4.54186C29.0053 4.43167 28.7201 4.37497 28.4321 4.375H4.38036C4.09238 4.37497 3.80722 4.43167 3.54115 4.54186C3.27509 4.65205 3.03334 4.81358 2.82971 5.01721C2.62608 5.22084 2.46455 5.46259 2.35436 5.72865C2.24417 5.99472 2.18747 6.27988 2.1875 6.56786V21.8694C2.18744 22.1574 2.24412 22.4426 2.3543 22.7087C2.46448 22.9748 2.626 23.2166 2.82963 23.4202C3.03327 23.6239 3.27503 23.7854 3.5411 23.8956C3.80718 24.0058 4.09236 24.0625 4.38036 24.0625H10.9375V6.5625ZM8.75 21.875H4.375V6.5625H8.75V21.875Z" fill="white"/>
</g>
<defs>
<clipPath id="clip0_821_5888">
<rect width="35" height="35" fill="white"/>
</clipPath>
</defs>
</svg>
