<svg width="35" height="35" viewBox="0 0 35 35" fill="none" xmlns="http://www.w3.org/2000/svg">
<g clip-path="url(#clip0_821_5893)">
<path d="M29.8619 2.18751C29.4728 2.18753 29.0877 2.26554 28.7293 2.41694C28.3708 2.56834 28.0464 2.79004 27.7751 3.06896L27.3452 3.51226L26.911 3.06896C26.6397 2.79002 26.3153 2.5683 25.9568 2.41689C25.5984 2.26549 25.2133 2.18748 24.8242 2.18748C24.4351 2.18748 24.05 2.26549 23.6915 2.41689C23.3331 2.5683 23.0087 2.79002 22.7374 3.06896C22.1838 3.64013 21.8743 4.40433 21.8743 5.19975C21.8743 5.99517 22.1838 6.75937 22.7374 7.33054L27.3452 12.0313L31.9485 7.33054C32.5021 6.75937 32.8117 5.99517 32.8117 5.19975C32.8117 4.40433 32.5021 3.64013 31.9485 3.06896C31.6773 2.79004 31.3529 2.56832 30.9945 2.41693C30.6361 2.26553 30.251 2.18752 29.8619 2.18751Z" fill="white"/>
<path d="M26.0551 19.6875H16.497L12.9766 6.52454C12.6763 5.40373 11.9432 4.44809 10.9383 3.86785C9.9335 3.28762 8.73933 3.13031 7.61852 3.43054C6.4977 3.73078 5.54206 4.46395 4.96182 5.46879C4.38159 6.47362 4.22428 7.66779 4.52452 8.78861L9.34653 26.8152C9.471 27.2806 9.7456 27.6918 10.1277 27.9852C10.5098 28.2785 10.9781 28.4375 11.4598 28.4375H20.7812V30.625H4.375V32.8125H20.7812C21.3614 32.8125 21.9178 32.582 22.328 32.1718C22.7383 31.7616 22.9688 31.2052 22.9688 30.625V28.4375H26.25C26.8612 28.4367 27.4655 28.3081 28.024 28.0597C28.5824 27.8114 29.0828 27.449 29.4928 26.9957C29.9028 26.5424 30.2134 26.0084 30.4046 25.4278C30.5959 24.8473 30.6635 24.2332 30.6031 23.625C30.4629 22.5239 29.9212 21.5132 29.082 20.7866C28.2428 20.0601 27.165 19.6687 26.0551 19.6875ZM26.25 26.25H11.4599L6.63753 8.22292C6.48739 7.66251 6.56601 7.06541 6.85611 6.56298C7.14621 6.06054 7.62402 5.69392 8.18442 5.54378C8.74483 5.39363 9.34193 5.47226 9.84436 5.76236C10.3468 6.05245 10.7134 6.53026 10.8636 7.09067L14.8166 21.875H26.25C26.8302 21.875 27.3866 22.1055 27.7968 22.5157C28.207 22.9259 28.4375 23.4823 28.4375 24.0625C28.4375 24.6427 28.207 25.1991 27.7968 25.6093C27.3866 26.0195 26.8302 26.25 26.25 26.25Z" fill="white"/>
</g>
<defs>
<clipPath id="clip0_821_5893">
<rect width="35" height="35" fill="white"/>
</clipPath>
</defs>
</svg>
