<svg width="35" height="35" viewBox="0 0 35 35" fill="none" xmlns="http://www.w3.org/2000/svg">
<g clip-path="url(#clip0_821_5897)">
<path d="M17.5 30.625C17.2545 30.6245 17.0092 30.6084 16.7657 30.5769C14.5181 26.9749 13.2737 22.8379 13.1613 18.5938H32.7578C32.7836 18.2312 32.8125 17.869 32.8125 17.5C32.8125 14.4715 31.9144 11.511 30.2319 8.99284C28.5493 6.47471 26.1578 4.51207 23.3598 3.3531C20.5619 2.19413 17.483 1.8909 14.5127 2.48173C11.5424 3.07257 8.81393 4.53094 6.67243 6.67243C4.53094 8.81393 3.07257 11.5424 2.48173 14.5127C1.8909 17.483 2.19413 20.5619 3.3531 23.3598C4.51207 26.1578 6.47471 28.5493 8.99284 30.2319C11.511 31.9144 14.4715 32.8125 17.5 32.8125V30.625ZM30.5694 16.4063H24.0221C23.9046 12.3813 22.875 8.43553 21.0109 4.86632C23.5904 5.58639 25.8883 7.07755 27.5966 9.14003C29.305 11.2025 30.3422 13.7378 30.5694 16.4063ZM18.2344 4.42302C20.4819 8.02499 21.7263 12.1621 21.8387 16.4063H13.1613C13.2737 12.1621 14.5181 8.02499 16.7657 4.42302C17.2531 4.35904 17.7469 4.35904 18.2344 4.42302ZM13.9891 4.86632C12.1251 8.43557 11.0955 12.3813 10.9779 16.4063H4.43057C4.65783 13.7378 5.69511 11.2025 7.40345 9.14008C9.11179 7.07761 11.4096 5.58643 13.9891 4.86632ZM4.43057 18.5938H10.9779C11.0955 22.6187 12.1251 26.5644 13.9891 30.1337C11.4096 29.4136 9.11179 27.9224 7.40345 25.8599C5.69511 23.7975 4.65783 21.2622 4.43057 18.5938Z" fill="white"/>
<path fill-rule="evenodd" clip-rule="evenodd" d="M27.3438 27.3438L32.8125 29.5312V27.3438L27.3438 24.6094V21.875C27.3438 21.5849 27.2285 21.3067 27.0234 21.1016C26.8183 20.8965 26.5401 20.7812 26.25 20.7812C25.9599 20.7812 25.6817 20.8965 25.4766 21.1016C25.2715 21.3067 25.1562 21.5849 25.1562 21.875V24.6094L19.6875 27.3438V29.5312L25.1562 27.3438V31.1719L22.9688 32.8125V33.9062L26.25 32.8125L29.5312 33.9062V32.8125L27.3438 31.1719V27.3438Z" fill="white"/>
</g>
<defs>
<clipPath id="clip0_821_5897">
<rect width="35" height="35" fill="white"/>
</clipPath>
</defs>
</svg>
