<svg width="35" height="35" viewBox="0 0 35 35" fill="none" xmlns="http://www.w3.org/2000/svg">
<g clip-path="url(#clip0_821_5901)">
<path d="M32.1234 16.1328L21.875 10.9375V6.5625C21.875 5.40218 21.4141 4.28938 20.5936 3.46891C19.7731 2.64844 18.6603 2.1875 17.5 2.1875C16.3397 2.1875 15.2269 2.64844 14.4064 3.46891C13.5859 4.28938 13.125 5.40218 13.125 6.5625V10.9375L2.87656 16.1328C2.67305 16.2139 2.49857 16.3542 2.37571 16.5355C2.25286 16.7169 2.18729 16.9309 2.1875 17.15V22.6187C2.1875 22.9088 2.30273 23.187 2.50785 23.3921C2.71297 23.5973 2.99117 23.7125 3.28125 23.7125C3.3891 23.71 3.49598 23.6916 3.59844 23.6578L13.125 19.6875V25.1562L9.35156 27.0375C9.16952 27.1292 9.01674 27.27 8.91045 27.4439C8.80415 27.6179 8.74858 27.818 8.75 28.0219V31.7188C8.75 32.0088 8.86523 32.287 9.07035 32.4921C9.27547 32.6973 9.55367 32.8125 9.84375 32.8125C9.94521 32.8285 10.0485 32.8285 10.15 32.8125L17.5 30.625L24.85 32.8125C24.9515 32.8285 25.0548 32.8285 25.1562 32.8125C25.4463 32.8125 25.7245 32.6973 25.9296 32.4921C26.1348 32.287 26.25 32.0088 26.25 31.7188V28.0219C26.2514 27.818 26.1958 27.6179 26.0896 27.4439C25.9833 27.27 25.8305 27.1292 25.6484 27.0375L21.875 25.1562V19.6875L31.4016 23.6359C31.504 23.6697 31.6109 23.6881 31.7188 23.6906C32.0088 23.6906 32.287 23.5754 32.4921 23.3703C32.6973 23.1652 32.8125 22.887 32.8125 22.5969V17.1281C32.8084 16.9128 32.7408 16.7035 32.6182 16.5264C32.4956 16.3494 32.3235 16.2125 32.1234 16.1328ZM30.625 20.9453L19.6875 16.4062V26.5125L24.0625 28.7V30.2641L17.5 28.35L10.9375 30.2641V28.7L15.3125 26.5125V16.4062L4.375 20.9453V17.8281L15.3125 12.2828V6.5625C15.3125 5.98234 15.543 5.42594 15.9532 5.0157C16.3634 4.60547 16.9198 4.375 17.5 4.375C18.0802 4.375 18.6366 4.60547 19.0468 5.0157C19.457 5.42594 19.6875 5.98234 19.6875 6.5625V12.2828L30.625 17.8281V20.9453Z" fill="white"/>
</g>
<defs>
<clipPath id="clip0_821_5901">
<rect width="35" height="35" fill="white"/>
</clipPath>
</defs>
</svg>
