<svg width="60" height="60" viewBox="0 0 60 60" fill="none" xmlns="http://www.w3.org/2000/svg">
<rect x="6" width="47.3684" height="43" rx="19" fill="#FAC2CD"/>
<path d="M0.662429 19.4832C1.35705 16.8262 4.49988 17.6261 4.49988 20.3637V24.6527C4.49988 36.4578 14.5735 46.0277 26.9999 46.0277H32.9999C45.4263 46.0277 55.4999 36.4578 55.4999 24.6527V20.3632C55.4999 17.6256 58.6427 16.8257 59.3374 19.4826C59.7703 21.1381 60 22.8699 60 24.6526V33.2026C60 44.2152 51.2336 53.2826 39.9686 54.4504C39.9893 54.6309 40 54.8143 40 55C40 57.7614 37.6436 60 34.7368 60H25.2632C22.3564 60 20 57.7614 20 55C20 54.8143 20.0107 54.6309 20.0314 54.4504C8.76643 53.2826 0 44.2151 0 33.2026V24.6526C0 22.8701 0.229669 21.1385 0.662429 19.4832Z" fill="#1F78FF"/>
<rect x="3" y="21.7998" width="6" height="2.85" rx="1.425" fill="black"/>
<rect x="20" y="50" width="20" height="10" rx="5" fill="black"/>
<path d="M35.6882 20.4922H32.8885C32.8374 20.13 32.733 19.8082 32.5753 19.527C32.4176 19.2415 32.2152 18.9986 31.968 18.7983C31.7209 18.598 31.4354 18.4446 31.1115 18.3381C30.7919 18.2315 30.4446 18.1783 30.0696 18.1783C29.392 18.1783 28.8018 18.3466 28.299 18.6832C27.7962 19.0156 27.4063 19.5014 27.1293 20.1406C26.8523 20.7756 26.7138 21.5469 26.7138 22.4545C26.7138 23.3878 26.8523 24.1719 27.1293 24.8068C27.4105 25.4418 27.8026 25.9212 28.3054 26.245C28.8082 26.5689 29.3899 26.7308 30.0504 26.7308C30.4212 26.7308 30.7642 26.6818 31.0795 26.5838C31.3991 26.4858 31.6825 26.343 31.9297 26.1555C32.1768 25.9638 32.3814 25.7315 32.5433 25.4588C32.7095 25.1861 32.8246 24.875 32.8885 24.5256L35.6882 24.5384C35.6158 25.1392 35.4347 25.7188 35.1449 26.277C34.8594 26.831 34.4737 27.3274 33.9879 27.7663C33.5064 28.201 32.9311 28.5462 32.2621 28.8018C31.5973 29.0533 30.8452 29.179 30.0057 29.179C28.8381 29.179 27.794 28.9148 26.8736 28.3864C25.9574 27.858 25.233 27.093 24.7003 26.0916C24.1719 25.0902 23.9077 23.8778 23.9077 22.4545C23.9077 21.027 24.1761 19.8125 24.7131 18.8111C25.25 17.8097 25.9787 17.0469 26.8991 16.5227C27.8196 15.9943 28.8551 15.7301 30.0057 15.7301C30.7642 15.7301 31.4673 15.8366 32.1151 16.0497C32.767 16.2628 33.3445 16.5739 33.8473 16.983C34.3501 17.3878 34.7592 17.8842 35.0746 18.4723C35.3942 19.0604 35.5987 19.7337 35.6882 20.4922Z" fill="white"/>
<rect x="51" y="21.7998" width="6" height="2.85" rx="1.425" fill="black"/>
</svg>
